<svg width="108" height="108" viewBox="0 0 108 108" fill="none" xmlns="http://www.w3.org/2000/svg">
<g clip-path="url(#clip0_14_9)">
<path fill-rule="evenodd" clip-rule="evenodd" d="M67.3956 40.582H36.9866V19L72.4362 19C82.437 19 90.5219 26.8279 90.5219 36.445V87.5253H67.3956V40.582Z" fill="black"/>
<path d="M50.652 88.2393H39.0475C26.8724 88.2393 17 78.3372 17 66.1113C17 53.8854 26.8724 43.9834 39.0362 43.9834H50.6406C62.8158 43.9834 72.6768 53.8969 72.6768 66.1113C72.6882 78.3372 62.8158 88.2393 50.652 88.2393Z" fill="black"/>
<path d="M60.5421 66.1113C60.5421 78.3322 50.7948 88.2393 38.771 88.2392C26.7472 88.2392 17 78.3322 17 66.1113C17 53.8904 26.7472 43.9834 38.771 43.9834C50.7949 43.9834 60.5421 53.8904 60.5421 66.1113Z" fill="white"/>
<path fill-rule="evenodd" clip-rule="evenodd" d="M38.771 85.384C49.1744 85.384 57.6869 76.7993 57.6869 66.1113C57.6869 55.4233 49.1744 46.8386 38.771 46.8386C28.3677 46.8386 19.8552 55.4233 19.8552 66.1113C19.8552 76.7993 28.3677 85.384 38.771 85.384ZM38.771 88.2392C50.7948 88.2393 60.5421 78.3322 60.5421 66.1113C60.5421 53.8904 50.7949 43.9834 38.771 43.9834C26.7472 43.9834 17 53.8904 17 66.1113C17 78.3322 26.7472 88.2392 38.771 88.2392Z" fill="black"/>
<path d="M48.4075 67.5388V64.6836H28.4209V67.5388H48.4075Z" fill="black"/>
<path d="M36.9866 76.1043H39.8418V56.1177H36.9866V76.1043Z" fill="black"/>
</g>
<defs>
<clipPath id="clip0_14_9">
<rect width="74" height="70" fill="white" transform="translate(17 19)"/>
</clipPath>
</defs>
</svg>
