<svg width="256" height="256" viewBox="0 0 256 256" fill="none" xmlns="http://www.w3.org/2000/svg">
<g id="Final Logo In Parts redrawn">
<path id="Vector 3" d="M84.0049 20V84H168.005H172.005V88V122V132.229L165.069 124.716L165.068 124.716L165.067 124.715L165.066 124.713L165.063 124.71L165.025 124.67C164.989 124.631 164.929 124.569 164.848 124.485C164.685 124.316 164.434 124.059 164.098 123.727C163.426 123.062 162.417 122.097 161.101 120.931C158.467 118.596 154.624 115.474 149.823 112.354C140.172 106.081 126.934 100 112 100H111.813H111.627H111.441H111.256H111.072H110.888H110.706H110.524H110.342H110.162H109.982H109.803H109.624H109.446H109.269H109.093H108.917H108.743H108.568H108.395H108.222H108.05H107.879H107.708H107.538H107.369H107.2H107.032H106.865H106.698H106.533H106.367H106.203H106.039H105.876H105.714H105.552H105.391H105.231H105.071H104.912H104.754H104.596H104.439H104.283H104.127H103.972H103.818H103.664H103.511H103.359H103.207H103.056H102.906H102.756H102.607H102.459H102.311H102.164H102.017H101.871H101.726H101.582H101.438H101.295H101.152H101.01H100.869H100.728H100.588H100.449H100.31H100.172H100.034H99.8973H99.761H99.6254H99.4904H99.3559H99.2222H99.089H98.9564H98.8245H98.6932H98.5625H98.4324H98.3029H98.174H98.0457H97.918H97.791H97.6645H97.5387H97.4134H97.2887H97.1646H97.0412H96.9183H96.796H96.6743H96.5532H96.4327H96.3127H96.1934H96.0746H95.9565H95.8388H95.7218H95.6054H95.4895H95.3742H95.2595H95.1454H95.0318H94.9188H94.8063H94.6945H94.5832H94.4724H94.3622H94.2526H94.1436H94.0351H93.9271H93.8197H93.7129H93.6066H93.5009H93.3957H93.291H93.1869H93.0834H92.9804H92.8779H92.776H92.6746H92.5738H92.4735H92.3737H92.2745H92.1758H92.0776H91.98H91.8829H91.7863H91.6902H91.5947H91.4996H91.4051H91.3112H91.2177H91.1248H91.0323H90.9404H90.849H90.7581H90.6677H90.5779H90.4885H90.3996H90.3113H90.2234H90.1361H90.0492H89.9628H89.877H89.7916H89.7067H89.6224H89.5385H89.4551H89.3721H89.2897H89.2078H89.1263H89.0453H88.9648H88.8848H88.8053H88.7262H88.6476H88.5695H88.4919H88.4147H88.338H88.2618H88.186H88.1107H88.0358H87.9615H87.8875H87.8141H87.7411H87.6685H87.5965H87.5248H87.4536H87.3829H87.3126H87.2428H87.1734H87.1044H87.0359H86.9679H86.9003H86.8331H86.7663H86.7H86.6342H86.5687H86.5037H86.4392H86.375H86.3113H86.248H86.1851H86.1227H86.0607H85.9991H85.9379H85.8771H85.8168H85.7568H85.6973H85.6382H85.5795H85.5212H85.4634H85.4059H85.3488H85.2921H85.2359H85.18H85.1246H85.0695H85.0148H84.9606H84.9067H84.8532H84.8001H84.7474H84.6951H84.6431H84.5916H84.5404H84.4896H84.4392H84.3892H84.3395H84.2903H84.2414H84.1928H84.1447H84.0969H84.0495H84.0049V236H84.0495H84.0969H84.1447H84.1928H84.2414H84.2903H84.3395H84.3892H84.4392H84.4896H84.5404H84.5916H84.6431H84.695H84.7474H84.8001H84.8532H84.9067H84.9605H85.0148H85.0695H85.1246H85.18H85.2359H85.2921H85.3488H85.4059H85.4633H85.5212H85.5795H85.6382H85.6973H85.7568H85.8168H85.8771H85.9379H85.9991H86.0607H86.1227H86.1851H86.248H86.3113H86.375H86.4391H86.5037H86.5687H86.6342H86.7H86.7663H86.8331H86.9003H86.9679H87.0359H87.1044H87.1734H87.2428H87.3126H87.3829H87.4536H87.5248H87.5964H87.6685H87.7411H87.8141H87.8875H87.9615H88.0358H88.1107H88.186H88.2618H88.338H88.4147H88.4919H88.5695H88.6476H88.7262H88.8053H88.8848H88.9648H89.0453H89.1263H89.2078H89.2897H89.3721H89.4551H89.5385H89.6223H89.7067H89.7916H89.877H89.9628H90.0492H90.1361H90.2234H90.3113H90.3996H90.4885H90.5779H90.6677H90.7581H90.849H90.9404H91.0323H91.1248H91.2177H91.3112H91.4051H91.4996H91.5947H91.6902H91.7863H91.8828H91.98H92.0776H92.1758H92.2745H92.3737H92.4735H92.5738H92.6746H92.776H92.8779H92.9804H93.0834H93.1869H93.291H93.3957H93.5008H93.6066H93.7129H93.8197H93.9271H94.035H94.1435H94.2526H94.3622H94.4724H94.5831H94.6945H94.8063H94.9188H95.0318H95.1453H95.2595H95.3742H95.4895H95.6054H95.7218H95.8388H95.9564H96.0746H96.1934H96.3127H96.4327H96.5532H96.6743H96.796H96.9183H97.0412H97.1646H97.2887H97.4134H97.5386H97.6645H97.791H97.918H98.0457H98.174H98.3029H98.4324H98.5625H98.6932H98.8245H98.9564H99.089H99.2221H99.3559H99.4903H99.6254H99.761H99.8973H100.034H100.172H100.31H100.449H100.588H100.728H100.869H101.01H101.152H101.295H101.438H101.582H101.726H101.871H102.017H102.164H102.311H102.459H102.607H102.756H102.906H103.056H103.207H103.359H103.511H103.664H103.818H103.972H104.127H104.283H104.439H104.596H104.754H104.912H105.071H105.231H105.391H105.552H105.714H105.876H106.039H106.203H106.367H106.533H106.698H106.865H107.032H107.2H107.369H107.538H107.708H107.879H108.05H108.222H108.395H108.568H108.743H108.917H109.093H109.269H109.446H109.624H109.803H109.982H110.162H110.342H110.524H110.706H110.888H111.072H111.256H111.441H111.627H111.813H112C126.934 236 140.172 229.919 149.823 223.646C154.624 220.526 158.467 217.404 161.101 215.069C162.417 213.903 163.426 212.938 164.098 212.273C164.434 211.941 164.685 211.684 164.848 211.515C164.929 211.431 164.989 211.369 165.025 211.33L165.063 211.29L165.066 211.287L165.067 211.285L165.068 211.284L165.069 211.284L172.005 203.771V214V236H244.005L244.005 234.094L244.004 218.25C244.004 205 244.003 187 244.003 168C244.003 130.001 244.003 88.0018 244.005 72.0005L84.0049 20ZM84.0049 20H84.071H84.1786H84.2874H84.3976H84.509H84.6217H84.7356H84.8508H84.9672H85.0849H85.2038H85.3239H85.4453H85.5679H85.6917H85.8167H85.9429H86.0704H86.199H86.3288H86.4598H86.592H86.7254H86.8599H86.9956H87.1325H87.2705H87.4097H87.55H87.6915H87.8341H87.9778H88.1227H88.2687H88.4158H88.564H88.7133H88.8638H89.0153H89.1679H89.3216H89.4764H89.6322H89.7892H89.9472H90.1062H90.2664H90.4275H90.5898H90.753H90.9173H91.0826H91.249H91.4164H91.5848H91.7542H91.9246H92.096H92.2684H92.4418H92.6162H92.7916H92.968H93.1453H93.3236H93.5028H93.683H93.8642H94.0463H94.2294H94.4134H94.5983H94.7841H94.9709H95.1586H95.3472H95.5367H95.7271H95.9184H96.1106H96.3037H96.4976H96.6925H96.8882H97.0848H97.2822H97.4805H97.6797H97.8797H98.0805H98.2822H98.4847H98.688H98.8922H99.0972H99.3029H99.5095H99.7169H99.9251H100.134H100.344H100.554H100.766H100.978H101.191H101.404H101.619H101.834H102.05H102.266H102.484H102.702H102.921H103.14H103.36H103.581H103.803H104.025H104.249H104.472H104.697H104.922H105.148H105.374H105.601H105.829H106.058H106.287H106.517H106.747H106.978H107.21H107.442H107.675H107.908H108.143H108.377H108.613H108.849H109.085H109.322H109.56H109.798H110.037H110.277H110.517H110.757H110.998H111.24H111.482H111.725H111.968H112.212H112.456H112.701H112.946H113.192H113.439H113.685H113.933H114.181H114.429H114.678H114.927H115.177H115.427H115.677H115.928H116.18H116.432H116.684H116.937H117.19H117.444H117.698H117.953H118.208H118.463H118.719H118.975H119.231H119.488H119.745H120.003H120.261H120.519H120.778H121.037H121.297H121.556H121.816H122.077H122.337H122.599H122.86H123.122H123.384H123.646H123.908H124.171H124.435H124.698H124.962H125.226H125.49H125.754H126.019H126.284H126.55H126.815H127.081H127.347H127.613H127.879H128.146H128.413H128.68H128.947H129.215H129.482H129.75H130.018H130.286H130.555H130.823H131.092H131.361H131.63H131.899H132.168H132.438H132.707H132.977H133.247H133.517H133.787H134.057H134.327H134.597H134.868H135.138H135.409H135.68H135.95H136.221H136.492H136.763H137.034H137.305H137.576H137.847H138.118H138.389H138.661H138.932H139.203H139.474H139.745H140.017H140.288H140.559H140.83H141.101H141.372H141.643H141.914H142.185H142.456H142.727H142.998H143.269H143.539H143.81H144.081H144.351H144.621H144.892H145.162H145.432H145.702H145.972H146.241H146.511H146.781H147.05H147.319H147.588H147.857H148.126H148.394H148.663H148.931H149.199H149.467H149.735H150.002H150.27H150.537H150.804H151.07H151.337H151.603H151.869H152.135H152.401H152.666H152.931H153.196H153.461H153.725H153.989H154.253H154.516H154.78H155.043H155.305H155.568H155.83H156.092H156.353H156.614H156.875H157.136H157.396H157.656H157.915H158.174H158.433H158.692H158.95H159.207H159.465H159.722H159.978H160.235H160.49H160.746H161.001H161.256H161.51H161.764H162.017H162.27H162.523H162.775H163.026H163.278H163.528H163.779H164.029H164.278H164.527H164.775H165.023H165.271H165.518H165.764H166.01H166.256H166.501H166.745H166.989H167.233H167.476H167.718H167.96H168.201H168.442H168.682H168.922H169.161H169.399H169.637H169.874H170.111H170.347H170.583H170.818H171.052H171.286H171.519H171.751H171.983H172.215H172.445H172.675H172.905H173.133H173.361H173.589H173.815H174.041H174.267H174.491H174.715H174.939H175.161H175.383H175.604H175.825H176.045H176.264H176.482H176.7H176.916H177.133H177.348H177.563H177.777H177.99H178.202H178.414H178.624H178.834H179.044H179.252H179.46H179.667H179.873H180.078H180.282H180.486H180.689H180.891H181.092H181.292H181.491H181.69H181.888H182.085H182.281H182.476H182.67H182.863H183.056H183.247H183.438H183.628H183.817H184.005M84.0049 20H184.005M184.005 20C199.044 20 214.142 25.657 225.441 35.0729C236.719 44.4713 244.003 57.414 244.005 71.9994L184.005 20Z" fill="#FEC82E" stroke="black" stroke-width="8"/>
<circle id="circle" cx="80" cy="168" r="68" fill="white" stroke="black" stroke-width="8"/>
<path id="cross" fill-rule="evenodd" clip-rule="evenodd" d="M84 132H76V164H44V172H76V204H84V172H116V164H84V132Z" fill="black"/>
</g>
</svg>
